<?xml version="1.0" encoding="UTF-8"?>
<svg version="1.1" xmlns="http://www.w3.org/2000/svg" width="1252" height="1307">
<path d="M0 0 C413.16 0 826.32 0 1252 0 C1252 431.31 1252 862.62 1252 1307 C838.84 1307 425.68 1307 0 1307 C0 875.69 0 444.38 0 0 Z " fill="#FEFEFE" transform="translate(0,0)"/>
<path d="M0 0 C1.05738876 0.00140488 1.05738876 0.00140488 2.13613892 0.00283813 C28.96023624 0.07984148 54.96173805 4.02920621 79.5625 15.1875 C80.29227051 15.50855713 81.02204102 15.82961426 81.77392578 16.16040039 C108.91548902 28.11006792 133.35049145 46.5640133 152.5625 69.1875 C153.24183594 69.97898437 153.92117188 70.77046875 154.62109375 71.5859375 C175.3121104 96.26329681 193.76852779 124.71230302 204.5625 155.1875 C205.26415456 157.03150349 205.97033495 158.87378782 206.6796875 160.71484375 C214.44910132 180.93596501 219.94999384 201.02193352 224.5625 222.1875 C224.72492188 222.92790527 224.88734375 223.66831055 225.0546875 224.43115234 C229.06808054 243.08301787 231.19499181 262.32158694 232.8125 281.3125 C232.93250366 282.7037207 232.93250366 282.7037207 233.05493164 284.12304688 C233.58178894 290.86779716 233.5625 297.37192419 233.5625 304.1875 C220.3625 304.1875 207.1625 304.1875 193.5625 304.1875 C193.315 298.53625 193.0675 292.885 192.8125 287.0625 C191.96511732 269.92400109 190.25123793 253.14570095 187.5625 236.1875 C187.39991699 235.14045898 187.23733398 234.09341797 187.06982422 233.01464844 C183.98560994 213.392394 179.559045 194.1251182 173.5625 175.1875 C173.24796875 174.18944336 172.9334375 173.19138672 172.609375 172.16308594 C160.3755112 133.6469569 143.53206896 98.43543265 115.828125 68.640625 C113.84364714 66.49191449 111.94654214 64.29869955 110.0625 62.0625 C97.70480052 48.02869875 81.51949975 37.90073988 64.63183594 30.14404297 C63.10520816 29.43836486 61.58903876 28.70995659 60.07910156 27.96923828 C53.26541304 24.70449899 46.53383013 22.64765946 39.1875 20.9375 C38.13433594 20.68226563 37.08117187 20.42703125 35.99609375 20.1640625 C33.18830964 19.48791677 30.37990901 18.82230459 27.5625 18.1875 C26.80533691 18.00123047 26.04817383 17.81496094 25.26806641 17.62304688 C21.49134664 17.01506383 17.73728737 17.00475039 13.921875 16.984375 C13.08142639 16.97867493 12.24097778 16.97297485 11.37506104 16.96710205 C9.59315234 16.95767048 7.81122635 16.9511254 6.02929688 16.94726562 C3.3629488 16.93768134 0.69741338 16.90669288 -1.96875 16.875 C-43.10447143 16.62156477 -78.37430023 33.82313247 -107.4375 62.1875 C-128.62438886 83.62704341 -149.70653512 114.01509693 -158.34765625 142.96484375 C-159.32989469 145.86931226 -160.4840515 148.50802368 -161.78125 151.28125 C-170.38682334 169.93636937 -175.3190514 190.14068197 -179.4375 210.1875 C-179.62650879 211.09661133 -179.81551758 212.00572266 -180.01025391 212.94238281 C-181.25759428 219.00668804 -182.3785226 225.08770258 -183.4375 231.1875 C-183.60491699 232.13399414 -183.77233398 233.08048828 -183.94482422 234.05566406 C-189.39876402 265.34540318 -191.00652623 296.66014092 -190.88412857 328.36206055 C-190.87483 330.92179731 -190.87045721 333.48150922 -190.86679077 336.04125977 C-190.81713994 360.93514133 -190.23429218 385.53975064 -186.4375 410.1875 C-186.22141027 411.62709988 -186.00542893 413.06671603 -185.78955078 414.50634766 C-184.6408326 422.0779358 -183.3855618 429.62504427 -181.99536133 437.15649414 C-181.63450895 439.11709909 -181.28463313 441.07976984 -180.94799805 443.04467773 C-179.80296167 449.67436192 -178.24811296 456.13012187 -176.5 462.625 C-175.9902381 464.54019241 -175.4811251 466.45555764 -174.97265625 468.37109375 C-174.71669678 469.32822266 -174.4607373 470.28535156 -174.19702148 471.27148438 C-173.43637411 474.19182261 -172.73781463 477.12291316 -172.0390625 480.05859375 C-170.36132465 486.79627983 -168.10831454 493.28650556 -165.75 499.8125 C-165.30720703 501.04162109 -164.86441406 502.27074219 -164.40820312 503.53710938 C-160.84243912 513.31089416 -156.92600563 522.80608091 -152.4375 532.1875 C-152.07221191 532.96963867 -151.70692383 533.75177734 -151.33056641 534.55761719 C-135.38217121 568.61232997 -111.07119642 603.78683532 -77.5 622.4375 C-74.4375 624.1875 -74.4375 624.1875 -73.125 625.58984375 C-52.91651086 644.72241796 -12.95217093 645.87423027 12.5625 645.1875 C34.5205378 644.20787046 54.3426592 637.57724099 73.7265625 627.54296875 C76.5625 626.1875 76.5625 626.1875 78.5625 626.1875 C78.8925 625.1975 79.2225 624.2075 79.5625 623.1875 C81.71484375 621.64453125 81.71484375 621.64453125 84.5 620 C94.06309046 614.10646751 102.34900658 606.81528825 110.5625 599.1875 C111.52736328 598.32125 111.52736328 598.32125 112.51171875 597.4375 C141.84921854 569.88362179 160.21010397 527.99052124 172.875 490.625 C173.11774658 489.91110107 173.36049316 489.19720215 173.6105957 488.46166992 C175.03810649 484.13773117 176.1490297 479.81726298 177.09545898 475.36401367 C177.7964 472.09747467 178.62012519 468.864101 179.4375 465.625 C179.92859991 463.67504449 180.41886187 461.72486799 180.90209961 459.77294922 C181.40343211 457.81024637 181.93271223 455.85465671 182.47485352 453.90283203 C185.63629767 442.12318379 187.23344689 430.27477183 188.75 418.1875 C189.01150762 416.16004486 189.27387284 414.13270014 189.53710938 412.10546875 C190.12334771 407.5747214 190.702635 403.04319089 191.26976013 398.51000977 C191.45719161 397.02298496 191.64845299 395.53643479 191.84461975 394.05053711 C192.42873076 389.57903167 192.81639464 385.1251858 193.09765625 380.625 C193.17636963 379.38621094 193.25508301 378.14742187 193.33618164 376.87109375 C193.4314917 375.32550781 193.52680176 373.77992188 193.625 372.1875 C193.934375 367.2375 194.24375 362.2875 194.5625 357.1875 C207.4325 357.1875 220.3025 357.1875 233.5625 357.1875 C233.33817109 374.12433292 231.7419449 390.63484223 229.6875 407.4375 C229.55857361 408.50966766 229.42964722 409.58183533 229.29681396 410.68649292 C227.92733647 421.99909382 226.52373413 433.16113062 223.5625 444.1875 C223.25860352 445.3645752 222.95470703 446.54165039 222.64160156 447.75439453 C221.65434097 451.54969931 220.64305177 455.33784741 219.625 459.125 C219.29048828 460.37990234 218.95597656 461.63480469 218.61132812 462.92773438 C216.93055637 469.20714946 215.22087794 475.47838726 213.46875 481.73828125 C213.16388672 482.82923096 212.85902344 483.92018066 212.54492188 485.04418945 C211.21570069 489.29710266 209.4850925 493.32704728 207.703125 497.40625 C206.67538213 499.91225316 205.93023652 502.32120571 205.25 504.9375 C203.31980054 511.72572957 199.86728844 517.8581676 196.63427734 524.09521484 C195.60185747 526.11066777 194.60155747 528.13837312 193.61328125 530.17578125 C176.64542473 565.09182095 150.92411188 603.17364939 117.5625 624.1875 C116.9025 624.1875 116.2425 624.1875 115.5625 624.1875 C115.31209961 624.79489014 115.06169922 625.40228027 114.80371094 626.02807617 C113.36242835 628.53557902 112.19877178 629.32155997 109.703125 630.73828125 C108.92420898 631.18598877 108.14529297 631.63369629 107.34277344 632.0949707 C106.5077832 632.55863037 105.67279297 633.02229004 104.8125 633.5 C103.95430664 633.9849292 103.09611328 634.4698584 102.21191406 634.96948242 C95.10854554 638.95237639 87.95810022 642.77016314 80.5625 646.1875 C78.92087891 646.95320312 78.92087891 646.95320312 77.24609375 647.734375 C69.45669291 651.11123257 61.55889952 653.36871248 53.3125 655.375 C52.33821045 655.6129126 51.3639209 655.8508252 50.36010742 656.09594727 C34.31505495 659.82295278 18.71217961 661.72665192 2.25 661.5625 C1.40088043 661.55751495 0.55176086 661.55252991 -0.3230896 661.5473938 C-38.61340158 661.28482089 -87.38392288 651.87584006 -115.9453125 623.71484375 C-116.76773438 622.88082031 -117.59015625 622.04679688 -118.4375 621.1875 C-120.12706288 619.76900406 -121.83608283 618.37340351 -123.5625 617 C-132.21357963 609.98119955 -140.27981998 602.72725238 -147.4375 594.1875 C-148.32594701 593.18166574 -149.21677849 592.17793499 -150.109375 591.17578125 C-167.88464498 571.08250809 -181.5393461 548.14814695 -193.4375 524.1875 C-193.7994043 523.46191895 -194.16130859 522.73633789 -194.53417969 521.98876953 C-203.95065167 502.80890292 -210.16449609 481.82252198 -215.4375 461.1875 C-215.70997559 460.12571533 -215.98245117 459.06393066 -216.26318359 457.9699707 C-219.46797406 445.31601468 -222.26049019 432.72588658 -224.05908203 419.79638672 C-224.48209314 416.88006628 -224.95576006 413.97423735 -225.43359375 411.06640625 C-232.82426452 365.37522998 -232.02355122 318.23716146 -228.4375 272.1875 C-228.34130371 270.85332031 -228.34130371 270.85332031 -228.24316406 269.4921875 C-222.70019686 195.58595811 -195.10619854 122.20679689 -146.4375 66.1875 C-145.80199219 65.43984375 -145.16648437 64.6921875 -144.51171875 63.921875 C-132.63559046 50.05274128 -118.64366567 39.18165836 -103.4375 29.1875 C-102.88046387 28.81915039 -102.32342773 28.45080078 -101.74951172 28.07128906 C-71.60999593 8.36566859 -35.67796103 -0.06138257 0 0 Z " fill="#040404" transform="translate(623.4375,171.8125)"/>
<path d="M0 0 C2.97 0 5.94 0 9 0 C9 38.28 9 76.56 9 116 C6.03 116 3.06 116 0 116 C-0.01417969 115.0821875 -0.02835938 114.164375 -0.04296875 113.21875 C-0.43996498 103.00414434 -2.16985617 97.5179942 -9.4375 90.4375 C-25.90031826 77.00972645 -46.06030758 75.39029038 -66.42520142 75.48101807 C-68.42477107 75.4751288 -70.4243362 75.4674945 -72.42389333 75.458287 C-77.86746299 75.43818408 -83.31076971 75.44253921 -88.75435925 75.45119452 C-94.64369773 75.45616652 -100.53297243 75.4380209 -106.42228699 75.42277527 C-116.60899987 75.39952581 -126.79564168 75.39071195 -136.98237991 75.39188385 C-147.65738945 75.3930966 -158.3323411 75.38620766 -169.00733566 75.36830902 C-169.67293115 75.36719763 -170.33852664 75.36608624 -171.02429169 75.36494118 C-174.40499224 75.3592535 -177.78569252 75.35341923 -181.16639273 75.34752855 C-205.06534996 75.30614907 -228.96429276 75.28311405 -252.86328125 75.27099609 C-276.07000359 75.25918685 -299.27669406 75.23898808 -322.48339844 75.20751953 C-323.19967186 75.20655158 -323.91594528 75.20558363 -324.65392396 75.20458635 C-331.84752638 75.19485591 -339.04112856 75.18495585 -346.23473058 75.17493158 C-360.88682229 75.15451778 -375.53891541 75.13523547 -390.19100952 75.11663818 C-390.86457847 75.11578185 -391.53814743 75.11492553 -392.23212756 75.11404325 C-437.15473453 75.05706137 -482.07736607 75.02675561 -527 75 C-527 63.45 -527 51.9 -527 40 C-524.50488106 39.99945523 -522.00976212 39.99891047 -519.43903351 39.99834919 C-475.75609856 39.98824073 -432.07317166 39.97174161 -388.39025879 39.92570496 C-387.36375888 39.92462578 -387.36375888 39.92462578 -386.31652161 39.9235248 C-371.44243962 39.90785037 -356.56835908 39.89106777 -341.69427964 39.87314438 C-334.39953953 39.86436089 -327.10479914 39.85582217 -319.81005859 39.84741211 C-319.08416235 39.84657106 -318.3582661 39.84573001 -317.610373 39.84486348 C-294.10182432 39.81774034 -270.59330197 39.80676472 -247.08473886 39.80420476 C-222.91717975 39.80148744 -198.74968716 39.78239585 -174.58215895 39.74283885 C-171.16499729 39.7372533 -167.74783536 39.73185402 -164.33067322 39.72656822 C-163.6581577 39.72552219 -162.98564219 39.72447615 -162.29274741 39.72339842 C-151.48750707 39.70707014 -140.68233352 39.70789183 -129.87708616 39.71520283 C-119.00177521 39.72219247 -108.12660797 39.71053285 -97.25133371 39.6813371 C-91.36383566 39.66607092 -85.4766194 39.65880251 -79.58911324 39.67340279 C-74.19100725 39.68660985 -68.79344591 39.67655033 -63.39540094 39.64856227 C-61.45031861 39.64248117 -59.5051874 39.64468661 -57.56013066 39.65637074 C-38.53629662 39.76163892 -21.76086087 35.83976036 -7 23 C-1.10567102 15.91898089 -0.02830368 9.02887333 0 0 Z " fill="#020202" transform="translate(968,445)"/>
<path d="M0 0 C4 0 4 0 5.5 1.328125 C5.995 1.96234375 6.49 2.5965625 7 3.25 C10.14012825 7.06688003 13.47900706 10.54155173 17 14 C20.81954678 17.7758382 24.48345765 21.59722179 27.97265625 25.68359375 C35.58330517 34.37938337 43.62166328 42.69719362 51.84375 50.8125 C54.39061135 53.39627238 56.7341195 56.11439516 59.08984375 58.87109375 C61.91423912 62.01893726 64.93912112 64.96016786 67.94848633 67.92895508 C71.22004195 71.17348701 74.26955975 74.53608678 77.2578125 78.0390625 C79.2543789 80.28631885 81.36012946 82.38894927 83.5 84.5 C86.24500542 87.20803565 88.8727091 89.94169249 91.375 92.875 C94.26974968 96.26232946 97.38040722 99.385962 100.5625 102.5 C103.56277814 105.44435683 106.40903351 108.34824428 108.8125 111.8125 C112.34348168 116.86127678 116.90373334 120.9976767 121.32739258 125.25317383 C121.9283374 125.83736084 122.52928223 126.42154785 123.1484375 127.0234375 C123.97093994 127.81113525 123.97093994 127.81113525 124.81005859 128.61474609 C126 130 126 130 126 132 C126.66 132 127.32 132 128 132 C128.00956568 117.12659468 127.98488468 102.25353753 127.9197216 87.38027096 C127.89025686 80.4738928 127.8718903 73.56782173 127.87988281 66.66137695 C127.8875653 59.9956492 127.86401288 53.33069884 127.82144547 46.66507149 C127.81030722 44.12261915 127.80962044 41.58009876 127.81957626 39.03764153 C127.83173914 35.4747895 127.80668114 31.91399069 127.77294922 28.35131836 C127.79128059 26.77606636 127.79128059 26.77606636 127.8099823 25.16899109 C127.70657379 19.10398368 126.84627157 15.668038 122.59889412 11.24166203 C120.06991381 9.27771784 117.76849244 8.87684924 114.625 8.5625 C113.56539062 8.44003906 112.50578125 8.31757812 111.4140625 8.19140625 C110.21910156 8.09666016 110.21910156 8.09666016 109 8 C109 6.68 109 5.36 109 4 C125.5 4 142 4 159 4 C159 5.32 159 6.64 159 8 C157.78763672 8.12955078 157.78763672 8.12955078 156.55078125 8.26171875 C149.57133318 8.93531436 149.57133318 8.93531436 143.8125 12.5 C141.17507791 16.13782357 140.87470149 17.92542939 140.87301636 22.37858582 C140.87019653 23.520811 140.86737671 24.66303619 140.86447144 25.83987427 C140.86649567 27.09951996 140.8685199 28.35916565 140.87060547 29.65698242 C140.86925082 30.99252877 140.86747052 32.32807474 140.86529541 33.66362 C140.86072297 37.30076562 140.86251137 40.93788299 140.8656745 44.57502913 C140.86820587 48.39037766 140.86585775 52.20572376 140.86428833 56.02107239 C140.86246604 62.44300774 140.8648715 68.86493162 140.86962891 75.28686523 C140.87504156 82.67791843 140.87333108 90.06894391 140.8678025 97.4599964 C140.86323692 103.82115513 140.86263846 110.18230559 140.86524117 116.54346544 C140.866789 120.33502899 140.8670398 124.12657963 140.86370468 127.91814232 C140.8607768 131.49763186 140.86289014 135.0770865 140.86859894 138.65657234 C140.87051495 140.57046589 140.86761265 142.48436246 140.86447144 144.39825439 C140.88498307 152.97354428 141.34080781 161.45349638 142 170 C138.29258923 169.35055209 136.41026073 168.91360563 133.87109375 166.078125 C133.31719971 165.47129883 132.76330566 164.86447266 132.19262695 164.23925781 C131.61343506 163.58280273 131.03424316 162.92634766 130.4375 162.25 C129.82543701 161.57549805 129.21337402 160.90099609 128.58276367 160.20605469 C127.32189953 158.8158586 126.06547586 157.4216225 124.81347656 156.0234375 C122.17161766 153.0757091 119.49512383 150.16060259 116.8125 147.25 C116.3268457 146.72092041 115.84119141 146.19184082 115.34082031 145.64672852 C112.04154686 142.07067408 108.64876004 138.60651327 105.1875 135.1875 C101.52751027 131.56939856 98.07659207 127.87376006 94.7421875 123.95703125 C92.75268949 121.72219156 90.6424598 119.65085728 88.5 117.5625 C85.6741736 114.779274 83.16058 112.00636197 80.8125 108.8125 C77.03947591 103.77591046 72.60118838 99.49532395 68.12548828 95.09423828 C64.45331643 91.47709496 60.96848755 87.79148782 57.63671875 83.85546875 C54.96705865 80.82900443 52.05539322 78.04790057 49.18359375 75.21484375 C47.22025329 73.22340539 45.37920331 71.18697422 43.5625 69.0625 C40.05650315 64.97081459 36.24538109 61.23033117 32.4140625 57.4453125 C29.75912434 54.75600621 27.29352429 51.95286013 24.84375 49.078125 C22.89953261 46.88676133 20.86892642 44.8205229 18.7890625 42.7578125 C18.0770166 42.05027832 17.3649707 41.34274414 16.63134766 40.61376953 C16.09300293 40.08122559 15.5546582 39.54868164 15 39 C14.90648902 53.7600643 14.83598776 68.52008929 14.79275131 83.28038979 C14.77214073 90.13413022 14.74404927 96.98768642 14.69824219 103.84130859 C14.65406076 110.4548641 14.63086492 117.06827846 14.62049103 123.68198776 C14.61309769 126.20578398 14.59866038 128.72956967 14.57707977 131.25328445 C14.54806234 134.78708829 14.54404347 138.32010019 14.54589844 141.85400391 C14.53151733 142.89841644 14.51713623 143.94282898 14.50231934 145.01889038 C14.53629696 150.99708593 14.97336692 154.47121874 19 159 C22.28491373 161.18994248 23.83095639 161.35277339 27.6875 161.625 C28.68136719 161.69976563 29.67523438 161.77453125 30.69921875 161.8515625 C31.83810547 161.92503906 31.83810547 161.92503906 33 162 C33 163.65 33 165.3 33 167 C16.5 167 0 167 -17 167 C-17 165.35 -17 163.7 -17 162 C-16.02160156 161.96132812 -16.02160156 161.96132812 -15.0234375 161.921875 C-9.31648878 161.55151255 -5.41147116 160.97032404 -1 157 C0.81102524 153.36480527 1.24950757 150.42406483 1.24723816 146.38800049 C1.25143265 145.26978409 1.25562714 144.15156769 1.25994873 142.99946594 C1.25432922 141.78180038 1.24870972 140.56413483 1.24291992 139.30957031 C1.24481827 138.01941513 1.24671661 136.72925995 1.24867249 135.40000916 C1.2535149 131.86410533 1.24586799 128.328328 1.23571944 124.79243946 C1.22690559 121.07547473 1.22869719 117.35851358 1.2290802 113.64154053 C1.22814355 107.38714501 1.2194678 101.13279797 1.20581055 94.87841797 C1.19016753 87.68899213 1.18480967 80.49961968 1.1855461 73.31017804 C1.18622731 65.61662483 1.17924527 57.92309171 1.1700995 50.22954464 C1.16798744 48.03504037 1.16726091 45.84053943 1.16686058 43.64603424 C1.16946274 21.80393178 1.16946274 21.80393178 0 0 Z " fill="#050505" transform="translate(304,965)"/>
<path d="M0 0 C14.77698018 12.46677624 24.6793881 30.68109348 27.08984375 49.89453125 C29.07498328 76.73470546 25.64596467 103.24463729 7.5625 124.5 C-7.80246288 140.77395878 -28.66585149 150.19708592 -51.0234375 150.98828125 C-73.57573939 151.41010119 -93.9820709 147.90121702 -111.625 132.75 C-112.26308594 132.25371094 -112.90117188 131.75742188 -113.55859375 131.24609375 C-129.71712033 118.17438122 -137.94461438 97.91907448 -140.625 77.75 C-142.90289626 50.74829474 -137.49750228 27.16553807 -119.875 6.0625 C-88.84306176 -27.39380841 -34.68215866 -27.05970621 0 0 Z M-101.625 7.75 C-113.72510575 22.2655261 -120.13854953 38.87572188 -120.625 57.75 C-120.65609863 58.54438477 -120.68719727 59.33876953 -120.71923828 60.15722656 C-121.55966321 82.92049461 -118.27965233 104.61147779 -102.9453125 122.44140625 C-88.88854757 136.42717741 -73.79071143 142.19593439 -54.15722656 142.18603516 C-38.46563098 141.87974275 -23.74784659 136.05060898 -12.625 124.75 C6.25270415 104.10486139 8.81247692 80.05566007 7.62304688 53.2734375 C7.13642009 46.36103811 5.79504006 40.25136174 3.375 33.75 C3.03597656 32.72132813 2.69695312 31.69265625 2.34765625 30.6328125 C-3.10899803 15.68041466 -13.76978652 2.7212934 -28.25 -4.125 C-30.03064747 -4.86059511 -31.82216546 -5.57059351 -33.625 -6.25 C-34.43195313 -6.55679688 -35.23890625 -6.86359375 -36.0703125 -7.1796875 C-58.54366559 -15.17867758 -85.17029094 -9.84070362 -101.625 7.75 Z " fill="#080808" transform="translate(653.625,984.25)"/>
<path d="M0 0 C15.84 0 31.68 0 48 0 C48 0.99 48 1.98 48 3 C47.40832031 3.08636719 46.81664062 3.17273438 46.20703125 3.26171875 C45.41683594 3.40222656 44.62664063 3.54273438 43.8125 3.6875 C42.64654297 3.87892578 42.64654297 3.87892578 41.45703125 4.07421875 C37.88544485 5.41995162 36.3561102 6.97357965 34 10 C33.26979262 13.31274274 33.33691854 16.55892886 33.38476562 19.93994141 C33.37921661 20.93737366 33.3736676 21.93480591 33.36795044 22.96246338 C33.35614283 26.25931897 33.38045206 29.55480295 33.40625 32.8515625 C33.40796166 35.14976946 33.40789485 37.44797838 33.40612793 39.7461853 C33.40778212 44.56649424 33.42649106 49.38633869 33.45800781 54.20654297 C33.49755126 60.36315414 33.50206894 66.51915312 33.49454498 72.67586708 C33.49146278 77.42533908 33.50364242 82.17467541 33.52067566 86.92411423 C33.52767419 89.19254071 33.53083404 91.46098259 33.52998352 93.72941971 C33.5317971 96.91445459 33.55331604 100.0987804 33.58007812 103.28369141 C33.57568222 104.67130173 33.57568222 104.67130173 33.57119751 106.08694458 C33.74595374 119.68226605 38.81350716 133.82733464 48.0625 143.9375 C55.14900264 150.42941594 65.21096013 156.04960662 75 156 C76.216875 156.04769531 77.43375 156.09539062 78.6875 156.14453125 C93.37916138 156.60239438 105.78834111 153.08529481 116.8125 142.875 C126.4943949 132.56958414 130.46976755 119.05034785 130.40405273 105.19775391 C130.41091599 104.16884033 130.41777924 103.13992676 130.42485046 102.07983398 C130.44300898 98.71193272 130.43929927 95.34450172 130.43359375 91.9765625 C130.43815819 89.62388966 130.44346454 87.27121816 130.44947815 84.91854858 C130.45838571 80.0047257 130.45600981 75.0910656 130.44604492 70.17724609 C130.434511 63.87543921 130.45484666 57.574189 130.48396206 51.27245522 C130.50228006 46.42207266 130.50204118 41.57182492 130.49632454 36.72141647 C130.49617104 34.39694813 130.50223899 32.07247082 130.51461601 29.74803543 C130.52945444 26.50695617 130.51890392 23.26692481 130.50170898 20.02587891 C130.51137695 19.06479218 130.52104492 18.10370544 130.53100586 17.11349487 C130.53504918 11.90486181 130.53504918 11.90486181 128.08583069 7.44760132 C124.07408179 4.66338061 120.87534831 3.66482022 116 3 C116 2.01 116 1.02 116 0 C130.52 0 145.04 0 160 0 C160 1.32 160 2.64 160 4 C159.41992188 4.01417969 158.83984375 4.02835938 158.2421875 4.04296875 C157.07042969 4.11451172 157.07042969 4.11451172 155.875 4.1875 C155.10929688 4.22230469 154.34359375 4.25710938 153.5546875 4.29296875 C149.88795454 5.30776793 147.27687726 6.98583223 145 10 C144.13213667 13.38289529 144.23362529 16.67575775 144.30639648 20.15185547 C144.30379822 21.17212326 144.30119995 22.19239105 144.29852295 23.24357605 C144.2968087 25.457792 144.30892867 27.67205207 144.33325005 29.8861351 C144.37148152 33.40285667 144.373151 36.91794296 144.36549377 40.43484497 C144.35615985 47.91515149 144.39502293 55.39483646 144.4375 62.875 C144.48234727 71.51283529 144.50707011 80.15010828 144.49293709 88.78805923 C144.49602746 92.23083318 144.52964716 95.67238908 144.56504822 99.11495972 C144.63594068 118.56581556 140.9852912 134.16382106 127.31640625 148.7109375 C114.53567525 161.34079983 97.13426226 166.3372811 79.5 166.5 C61.38239029 166.30032987 45.46461933 161.02359509 32.1484375 148.24609375 C21.12577653 136.72240274 15.50173814 122.09037443 15.63110352 106.21362305 C15.62733704 105.18631577 15.62357056 104.15900848 15.61968994 103.10057068 C15.6132944 100.88864234 15.61355249 98.67668647 15.61987495 96.46475792 C15.62903293 92.96328346 15.61870958 89.46233894 15.60325623 85.96089172 C15.56327125 76.01259093 15.56196131 66.06433463 15.56420898 56.1159668 C15.56426002 50.01595291 15.54513199 43.91622835 15.51487541 37.81629372 C15.50404312 34.36779311 15.51618044 30.91984224 15.52870178 27.47135925 C15.51980045 25.36070203 15.50972715 23.25004931 15.49829102 21.1394043 C15.50803452 20.18191284 15.51777802 19.22442139 15.52781677 18.23791504 C15.48150589 13.9618037 15.3916923 11.63110179 13.09385681 7.92878723 C10.15940773 5.22567597 8.26005704 4.8260057 4.375 4.4375 C3.55773437 4.35371094 2.74046875 4.26992188 1.8984375 4.18359375 C1.27195312 4.12300781 0.64546875 4.06242188 0 4 C0 2.68 0 1.36 0 0 Z " fill="#080808" transform="translate(739,969)"/>
<path d="M0 0 C2.97 0 5.94 0 9 0 C9.07476562 0.99 9.14953125 1.98 9.2265625 3 C9.97214725 11.05455922 10.98561515 17.16786923 17 23 C17.48082031 23.515625 17.96164062 24.03125 18.45703125 24.5625 C31.46366443 37.20692314 49.30876146 39.08275072 66.46875 39.31640625 C67.74480103 39.33718735 69.02085205 39.35796844 70.33557129 39.37937927 C73.70232035 39.43343672 77.06908195 39.4837599 80.43591309 39.53222656 C83.88180463 39.58276658 87.32761676 39.63823424 90.7734375 39.69335938 C97.5155627 39.80086017 104.25773838 39.90022472 111 40 C111 51.55 111 63.1 111 75 C105.05419922 75.05607422 105.05419922 75.05607422 98.98828125 75.11328125 C95.79133203 75.15149257 92.59444746 75.19256419 89.39756012 75.2355423 C86.04293842 75.27986842 82.68855453 75.31782174 79.33374023 75.34643555 C75.46829956 75.38029868 71.60346255 75.43263018 67.73828125 75.48828125 C65.96871819 75.49786613 65.96871819 75.49786613 64.16340637 75.50764465 C48.18468554 75.78503903 30.04634928 79.8652639 17.890625 90.91796875 C10.94050553 98.34196 10.61068103 106.21303289 10 116 C6.7 116 3.4 116 0 116 C0 77.72 0 39.44 0 0 Z " fill="#050505" transform="translate(273,445)"/>
<path d="M0 0 C4.95 0.99 4.95 0.99 10 2 C21.25439007 3.62239693 32.80939388 3.18248298 44.15234375 3.203125 C45.73328418 3.20736607 45.73328418 3.20736607 47.3461628 3.21169281 C52.91787077 3.22660357 58.48955337 3.23588571 64.0612793 3.24023438 C69.78135616 3.24572438 75.50119567 3.26978718 81.22119808 3.29820633 C85.65414596 3.31691835 90.08703742 3.32204273 94.52002144 3.32357025 C96.62772489 3.32657513 98.73542787 3.33452939 100.84309196 3.34775543 C111.08896059 3.40749366 120.72282208 3.46113146 130.64674377 0.64471436 C133 0 133 0 136 0 C136 10.23 136 20.46 136 31 C134.35 31 132.7 31 131 31 C130.91363281 30.18015625 130.82726563 29.3603125 130.73828125 28.515625 C130.03339588 21.80515137 130.03339588 21.80515137 126.5 16.3125 C123.16059123 14.5593104 121.31193047 13.86662162 117.55029297 13.79467773 C116.62948944 13.77473251 115.70868591 13.75478729 114.75997925 13.73423767 C113.76410797 13.71752518 112.76823669 13.70081268 111.7421875 13.68359375 C110.72399933 13.66281265 109.70581116 13.64203156 108.6567688 13.62062073 C105.39624945 13.55510534 102.13564794 13.49623098 98.875 13.4375 C96.66796017 13.39431668 94.46092872 13.35070245 92.25390625 13.30664062 C86.83602499 13.19942195 81.41806154 13.09765926 76 13 C76.06052386 31.16748555 76.13801616 49.33481565 76.23571491 67.50213909 C76.28068235 75.93752989 76.32009481 84.37287838 76.34643555 92.80834961 C76.36940798 100.16062763 76.40279748 107.51277187 76.44870156 114.8649438 C76.47264407 118.75795625 76.49136606 122.65083612 76.49761391 126.54392052 C76.50366019 130.20885513 76.5236431 133.87345047 76.55427551 137.53825951 C76.56725062 139.52323842 76.56548455 141.50829656 76.5632782 143.49331665 C76.57581635 144.67817154 76.58835449 145.86302643 76.60127258 147.08378601 C76.60588155 148.11158519 76.61049051 149.13938437 76.61523914 150.19832897 C77.06118712 153.44553954 78.20281513 155.29093611 80 158 C80.33 158.99 80.66 159.98 81 161 C85.29 161.66 89.58 162.32 94 163 C94 164.65 94 166.3 94 168 C76.51 168 59.02 168 41 168 C41 166.68 41 165.36 41 164 C41.65226563 163.91363281 42.30453125 163.82726563 42.9765625 163.73828125 C49.1276818 162.74938449 52.67644896 161.5452716 57 157 C58.05162777 153.84511668 58.1376006 151.5999032 58.15821838 148.28633118 C58.1680072 147.09581146 58.17779602 145.90529175 58.18788147 144.67869568 C58.19363693 143.37102737 58.1993924 142.06335907 58.20532227 140.71606445 C58.21490147 139.32647409 58.22491158 137.93688664 58.23532104 136.54730225 C58.26237157 132.7728255 58.28338033 128.99833625 58.30332303 125.22381616 C58.32518166 121.27998081 58.35257095 117.33618401 58.37937927 113.39237976 C58.42930781 105.92327325 58.47424605 98.45414535 58.51740164 90.98499697 C58.56677263 82.48204079 58.62169127 73.97912329 58.67708123 65.47620451 C58.79090376 47.98417209 58.89774222 30.49210377 59 13 C52.54007316 13.0670493 46.08074918 13.1568753 39.62133789 13.26245117 C37.42447073 13.29568055 35.2275186 13.32371866 33.03051758 13.34643555 C29.87023757 13.38001754 26.71073479 13.43233634 23.55078125 13.48828125 C22.08020012 13.49786613 22.08020012 13.49786613 20.57991028 13.50764465 C15.60431572 13.61462942 12.00838977 13.70927611 8 17 C4.51794587 21.22820858 4.33320063 25.72623832 4 31 C2.68 31 1.36 31 0 31 C0 20.77 0 10.54 0 0 Z " fill="#0B0B0B" transform="translate(950,964)"/>
<path d="M0 0 C17.16 0 34.32 0 52 0 C52 1.32 52 2.64 52 4 C51.41992188 4.01417969 50.83984375 4.02835938 50.2421875 4.04296875 C44.14284441 4.41537089 41.19270484 5.50051188 37 10 C35.19483749 13.65815007 34.74781669 16.60433468 34.73930359 20.66151428 C34.72867638 22.35439827 34.72867638 22.35439827 34.71783447 24.08148193 C34.72031189 25.31022034 34.72278931 26.53895874 34.7253418 27.80493164 C34.72023087 29.10621506 34.71511993 30.40749847 34.70985413 31.74821472 C34.69648473 35.31008576 34.69588293 38.87185057 34.69841743 42.43374181 C34.69948811 45.40856225 34.69460149 48.38336128 34.689812 51.35817713 C34.67872486 58.37495018 34.67827554 65.39166969 34.68432617 72.40844727 C34.690372 79.64704618 34.6780378 86.88545102 34.6567561 94.12401682 C34.63914852 100.34155106 34.63313723 106.55902345 34.63639385 112.7765817 C34.63820753 116.48899233 34.63556174 120.20126437 34.62167931 123.91365242 C34.60678664 128.05071789 34.6160636 132.187387 34.62768555 136.32446289 C34.62004181 137.55522552 34.61239807 138.78598816 34.60452271 140.05404663 C34.61504417 141.74270088 34.61504417 141.74270088 34.6257782 143.46546936 C34.62552659 144.93244058 34.62552659 144.93244058 34.62526989 146.42904758 C35.0610033 149.41853212 36.09879991 150.70934305 38 153 C38 153.66 38 154.32 38 155 C42.55491614 157.20399168 47.02906176 157.58846263 52 158 C52 159.65 52 161.3 52 163 C34.51 163 17.02 163 -1 163 C-1 161.35 -1 159.7 -1 158 C-0.18015625 157.90203125 0.6396875 157.8040625 1.484375 157.703125 C3.10085937 157.47882813 3.10085937 157.47882813 4.75 157.25 C6.35101563 157.04117187 6.35101563 157.04117187 7.984375 156.828125 C11.45268859 155.87568655 12.78646498 154.79277783 15 152 C16.03578574 148.89264279 16.13325796 146.73084504 16.14717102 143.47183228 C16.15432632 142.32219498 16.16148163 141.17255768 16.16885376 139.98808289 C16.17154266 138.72567276 16.17423157 137.46326263 16.17700195 136.16259766 C16.18326796 134.82052942 16.18991489 133.47846292 16.19691467 132.13639832 C16.21793705 127.72896529 16.22831373 123.32153199 16.23828125 118.9140625 C16.24232916 117.3964168 16.24644609 115.87877128 16.25063133 114.36112595 C16.26967714 107.23255009 16.28391077 100.10398457 16.2922433 92.97538817 C16.30202098 84.74647329 16.32835664 76.51782703 16.36874419 68.28900683 C16.39889359 61.92798433 16.41371095 55.5670389 16.41702431 49.20594633 C16.41937571 45.40677492 16.42834772 41.6078907 16.45348549 37.80879593 C16.47675169 34.23494246 16.48100569 30.66156557 16.47072411 27.08765602 C16.46999209 25.15272063 16.48909254 23.21780952 16.50878906 21.28297424 C16.50184525 20.1276973 16.49490143 18.97242035 16.48774719 17.78213501 C16.49013555 16.78035532 16.4925239 15.77857563 16.49498463 14.74643898 C15.76334191 10.68689459 13.57303659 8.12359756 10.25 5.75 C6.87431002 4.62477001 3.53877808 4.35387781 0 4 C0 2.68 0 1.36 0 0 Z " fill="#090909" transform="translate(165,969)"/>
<path d="M0 0 C2.64 0 5.28 0 8 0 C8 1.33333333 8 2.66666667 8 4 C5.36 4 2.72 4 0 4 C0 2.68 0 1.36 0 0 Z " fill="#181818" transform="translate(413,969)"/>
<path d="M0 0 C1.98 0 3.96 0 6 0 C6.33 1.32 6.66 2.64 7 4 C4.69 4 2.38 4 0 4 C0 2.68 0 1.36 0 0 Z " fill="#181818" transform="translate(739,969)"/>
<path d="M0 0 C0 1.32 0 2.64 0 4 C-2.64 4 -5.28 4 -8 4 C-4.5 0 -4.5 0 0 0 Z " fill="#202020" transform="translate(899,969)"/>
<path d="M0 0 C0.66 0.33 1.32 0.66 2 1 C1.67 1.99 1.34 2.98 1 4 C-2.5625 5.1875 -2.5625 5.1875 -6 6 C-4 4 -2 2 0 0 Z " fill="#1A1A1A" transform="translate(547,979)"/>
<path d="M0 0 C0.66 0.33 1.32 0.66 2 1 C0.35 2.98 -1.3 4.96 -3 7 C-3.99 6.67 -4.98 6.34 -6 6 C-4 4 -2 2 0 0 Z " fill="#DFDFDF" transform="translate(752,786)"/>
</svg>
